HIERARCHY
ROOT SpineBase
{
  OFFSET 0.000000 0.000000 0.000000
  CHANNELS 6 Xposition Yposition Zposition Zrotation Xrotation Yrotation
  JOINT SpineMid
  {
    OFFSET 0.000000 30.106810 0.000000
    CHANNELS 3 Zrotation Xrotation Yrotation
    JOINT SpineShoulder
    {
      OFFSET -0.038501 22.361283 -0.693175
      CHANNELS 3 Zrotation Xrotation Yrotation
      JOINT Neck
      {
        OFFSET -0.025765 7.397427 -0.542254
        CHANNELS 3 Zrotation Xrotation Yrotation
        JOINT Head
        {
          OFFSET -3.516007 13.697605 0.100776
          CHANNELS 3 Zrotation Xrotation Yrotation
          End Site
          {
            OFFSET 0 0 0
          }
        }
      }
      JOINT ShoulderLeft
      {
        OFFSET -17.134149 -4.256927 6.332103
        CHANNELS 3 Zrotation Xrotation Yrotation
        JOINT ElbowLeft
        {
          OFFSET -2.019981 -25.250807 -0.887402
          CHANNELS 3 Zrotation Xrotation Yrotation
          JOINT WristLeft
          {
            OFFSET 0.048602 -19.175264 -6.174105
            CHANNELS 3 Zrotation Xrotation Yrotation
            JOINT HandLeft
            {
              OFFSET 1.200849 -4.872417 -2.047794
              CHANNELS 3 Zrotation Xrotation Yrotation
              JOINT HandTipLeft
              {
                OFFSET 0.147044 -6.961992 -0.901374
                CHANNELS 3 Zrotation Xrotation Yrotation
                End Site
                {
                  OFFSET 0 0 0
                }
              }
              JOINT ThumbLeft
              {
                OFFSET -3.336975 -2.092426 -2.462221
                CHANNELS 3 Zrotation Xrotation Yrotation
                End Site
                {
                  OFFSET 0 0 0
                }
              }
            }
          }
        }
      }
      JOINT ShoulderRight
      {
        OFFSET 15.095847 -2.975128 -6.200688
        CHANNELS 3 Zrotation Xrotation Yrotation
        JOINT ElbowRight
        {
          OFFSET 4.689925 -23.371708 -2.243027
          CHANNELS 3 Zrotation Xrotation Yrotation
          JOINT WristRight
          {
            OFFSET -2.287257 -19.482789 -5.930419
            CHANNELS 3 Zrotation Xrotation Yrotation
            JOINT HandRight
            {
              OFFSET -1.981217 -6.589157 -0.254206
              CHANNELS 3 Zrotation Xrotation Yrotation
              JOINT HandTipRight
              {
                OFFSET -1.115309 -6.045380 -1.882361
                CHANNELS 3 Zrotation Xrotation Yrotation
                End Site
                {
                  OFFSET 0 0 0
                }
              }
              JOINT ThumbRight
              {
                OFFSET -2.319301 0.935331 -0.402248
                CHANNELS 3 Zrotation Xrotation Yrotation
                End Site
                {
                  OFFSET 0 0 0
                }
              }
            }
          }
        }
      }
    }
  }
  JOINT HipLeft
  {
    OFFSET -6.598120 0.351947 -1.072738
    CHANNELS 3 Zrotation Xrotation Yrotation
    JOINT KneeLeft
    {
      OFFSET -0.414076 -26.579315 2.103550
      CHANNELS 3 Zrotation Xrotation Yrotation
      JOINT AnkleLeft
      {
        OFFSET 2.221906 -29.367550 4.239249
        CHANNELS 3 Zrotation Xrotation Yrotation
        JOINT FootLeft
        {
          OFFSET -1.255922 -8.633174 -3.892078
          CHANNELS 3 Zrotation Xrotation Yrotation
          End Site
          {
            OFFSET 0 0 0
          }
        }
      }
    }
  }
  JOINT HipRight
  {
    OFFSET 6.305248 1.069760 -5.865194
    CHANNELS 3 Zrotation Xrotation Yrotation
    JOINT KneeRight
    {
      OFFSET 10.425011 -29.955463 1.844515
      CHANNELS 3 Zrotation Xrotation Yrotation
      JOINT AnkleRight
      {
        OFFSET 8.846984 -28.952967 5.926045
        CHANNELS 3 Zrotation Xrotation Yrotation
        JOINT FootRight
        {
          OFFSET 1.944915 -5.982296 -6.259916
          CHANNELS 3 Zrotation Xrotation Yrotation
          End Site
          {
            OFFSET 0 0 0
          }
        }
      }
    }
  }
}
MOTION
Frames: 16
Frame Time: 0.033333
15.547890 64.353718 370.668280 -0.000000 0.000000 20.375563 0.000000 -0.000000 -20.375563 -0.000000 0.000000 0.000000 -0.000000 0.000000 0.000000 0.000000 0.000000 0.000000 -0.000000 0.000000 0.000000 -0.000000 0.000000 0.000000 -0.000000 0.000000 0.000000 -0.000000 0.000000 0.000000 0.000000 0.000000 0.000000 0.000000 0.000000 0.000000 -0.000000 0.000000 0.000000 -0.000000 0.000000 0.000000 -0.000000 0.000000 0.000000 -0.000000 0.000000 0.000000 0.000000 0.000000 0.000000 0.000000 0.000000 0.000000 0.000000 -0.000000 -20.375563 -0.000000 0.000000 0.000000 -0.000000 0.000000 0.000000 0.000000 0.000000 0.000000 0.000000 -0.000000 -20.375563 -0.000000 0.000000 0.000000 -0.000000 0.000000 0.000000 0.000000 0.000000 0.000000
15.608065 64.372448 370.666578 0.015190 0.039327 20.284852 -0.027882 -0.031621 -20.284865 -0.000000 0.000000 0.000000 -0.000000 0.000000 0.000000 0.000000 0.000000 0.000000 -0.000000 0.000000 0.000000 -0.000000 0.000000 0.000000 1.230830 -0.448067 -0.622303 -2.560593 2.767079 0.885964 0.000000 0.000000 0.000000 0.000000 0.000000 0.000000 -0.000000 0.000000 0.000000 -0.000000 0.000000 0.000000 -0.000000 0.000000 0.000000 1.428930 -3.005699 0.148744 0.000000 0.000000 0.000000 0.000000 0.000000 0.000000 -0.027882 -0.031621 -20.284865 -0.000000 0.000000 0.000000 -3.217235 13.231372 -0.103573 0.000000 0.000000 0.000000 -0.027882 -0.031621 -20.284865 -0.000000 0.000000 0.000000 -0.000000 0.000000 0.000000 0.000000 0.000000 0.000000
15.662106 64.386622 370.680816 0.036741 0.077120 20.259889 -0.061173 -0.059627 -20.259946 -0.000000 0.000000 0.000000 -0.000000 0.000000 0.000000 0.000000 0.000000 0.000000 0.827554 -0.086840 -0.021523 -0.827587 0.086520 0.022775 2.052056 -0.751147 -1.032472 -4.630794 5.164402 1.604252 0.000000 0.000000 0.000000 0.000000 0.000000 0.000000 -0.000000 0.000000 0.000000 0.684961 -0.580803 -0.137150 0.303121 1.541434 -0.201877 1.737711 -6.504018 0.691755 0.000000 0.000000 0.000000 0.000000 0.000000 0.000000 -0.061173 -0.059627 -20.259946 -0.000000 0.000000 0.000000 -6.200426 24.491287 0.476572 0.000000 0.000000 0.000000 -0.061173 -0.059627 -20.259946 -0.000000 0.000000 0.000000 -0.000000 0.000000 0.000000 0.000000 0.000000 0.000000
15.710013 64.396240 370.710993 0.064660 0.113384 20.300772 -0.099982 -0.083907 -20.300910 -0.000000 0.000000 0.000000 -0.298867 -0.800619 -0.205550 0.000000 0.000000 0.000000 1.214858 -0.114842 -0.032320 -1.688575 0.830135 0.192516 3.037721 -1.663254 -1.405995 -6.207346 7.120698 2.158772 0.000000 0.000000 0.000000 0.000000 0.000000 0.000000 -0.000000 0.000000 0.000000 0.961212 -0.719622 -0.202659 0.245167 2.294602 -0.338653 2.654966 -9.187214 1.117856 0.000000 0.000000 0.000000 0.000000 0.000000 0.000000 -0.099982 -0.083907 -20.300910 -0.000000 0.000000 0.000000 -8.776806 32.764059 1.441860 0.000000 0.000000 0.000000 -0.099982 -0.083907 -20.300910 -0.000000 0.000000 0.000000 0.000084 -0.835304 -0.273747 0.000000 0.000000 0.000000
15.751787 64.401302 370.757109 0.098957 0.148119 20.407547 -0.144395 -0.104316 -20.407806 -0.000000 0.000000 0.000000 -0.419084 -0.953952 -0.245524 0.000000 0.000000 0.000000 1.584084 -0.132540 -0.043288 -2.176308 0.999527 0.244922 3.423437 -1.910241 -1.562372 -7.249969 8.551231 2.528892 0.000000 0.000000 0.000000 0.000000 0.000000 0.000000 -0.000000 0.000000 0.000000 1.191763 -0.755048 -0.267142 0.069399 3.038362 -0.496680 3.580572 -11.493074 1.571422 0.000000 0.000000 0.000000 0.000000 0.000000 0.000000 -0.144395 -0.104316 -20.407806 -0.000000 0.000000 0.000000 -10.775705 38.041120 2.438440 0.000000 0.000000 0.000000 -0.144395 -0.104316 -20.407806 -0.000000 0.000000 0.000000 0.143149 -1.091090 -0.508018 0.000000 0.000000 0.000000
15.787427 64.401808 370.819166 0.139643 0.181328 20.580208 -0.194472 -0.120668 -20.580634 -0.000000 0.000000 0.000000 -0.549292 -1.050270 -0.270943 0.000000 0.000000 0.000000 1.934954 -0.139937 -0.054526 -2.625848 1.115443 0.290706 3.570926 -2.025464 -1.607766 -7.709703 9.381144 2.685616 0.000000 0.000000 0.000000 0.000000 0.000000 0.000000 -0.000000 0.000000 0.000000 1.375760 -0.686045 -0.331082 -0.215098 3.778264 -0.675847 4.503197 -13.431964 2.037239 0.000000 0.000000 0.000000 0.000000 0.000000 0.000000 -0.194472 -0.120668 -20.580634 -0.000000 0.000000 0.000000 -12.051415 40.678112 3.176938 0.000000 0.000000 0.000000 -0.194472 -0.120668 -20.580634 -0.000000 0.000000 0.000000 0.357513 -1.337216 -0.813796 0.000000 0.000000 0.000000
15.828905 64.398201 370.916630 0.195465 0.205666 20.978612 -0.256141 -0.122052 -20.979235 -0.000000 0.000000 0.000000 -0.649816 -1.014088 -0.261678 0.000000 0.000000 0.000000 2.439847 -0.065897 -0.079219 -3.283880 0.997021 0.362701 3.269733 -2.809794 -1.672119 -7.893718 11.994829 3.042267 0.000000 0.000000 0.000000 0.000000 0.000000 0.000000 -0.000000 0.000000 0.000000 1.473523 -0.340013 -0.405241 -0.113636 4.180418 -0.851666 5.596161 -15.381767 2.482399 0.000000 0.000000 0.000000 0.000000 0.000000 0.000000 -0.256141 -0.122052 -20.979235 -0.000000 0.000000 0.000000 -13.214125 41.796407 3.940157 0.000000 0.000000 0.000000 -0.256141 -0.122052 -20.979235 -0.000000 0.000000 0.000000 0.816628 -1.884837 -1.475849 0.000000 0.000000 0.000000
15.861966 64.388192 371.025768 0.260563 0.227549 21.354278 -0.325533 -0.117045 -21.355128 -0.000000 0.000000 0.000000 -0.844081 -0.912977 -0.235328 0.000000 0.000000 0.000000 2.729420 -0.032869 -0.092705 -3.610265 0.909710 0.386033 2.784780 -3.000326 -1.542891 -7.499009 11.183152 2.872831 0.000000 0.000000 0.000000 0.000000 0.000000 0.000000 -0.000000 0.000000 0.000000 1.599506 -0.027160 -0.484168 -0.717024 4.959519 -1.076100 5.963949 -15.795120 2.808926 0.000000 0.000000 0.000000 0.000000 0.000000 0.000000 -0.325533 -0.117045 -21.355128 -0.000000 0.000000 0.000000 -12.284065 40.357102 3.355166 0.000000 0.000000 0.000000 -0.325533 -0.117045 -21.355128 -0.000000 0.000000 0.000000 1.145137 -2.095848 -1.888679 0.000000 0.000000 0.000000
15.874490 64.373315 371.125898 0.316081 0.256726 21.655559 -0.388511 -0.121960 -21.656681 -0.000000 0.000000 0.000000 -1.054450 -0.834192 -0.214567 0.000000 0.000000 0.000000 2.925299 -0.010971 -0.101878 -3.836747 0.950767 0.404443 2.204450 -2.360458 -1.146147 -6.094080 6.763299 1.966896 0.000000 0.000000 0.000000 0.000000 0.000000 0.000000 -0.000000 0.000000 0.000000 1.658322 0.349887 -0.551377 -1.765090 5.975432 -1.355962 6.465535 -15.754276 3.126865 0.000000 0.000000 0.000000 0.000000 0.000000 0.000000 -0.388511 -0.121960 -21.656681 -0.000000 0.000000 0.000000 -10.813637 35.220090 2.628060 0.000000 0.000000 0.000000 -0.388511 -0.121960 -21.656681 -0.000000 0.000000 0.000000 1.440864 -2.110185 -2.200541 0.000000 0.000000 0.000000
15.866825 64.361363 371.219285 0.359125 0.286187 21.838018 -0.439812 -0.132056 -21.839421 -0.000000 0.000000 0.000000 -1.237121 -0.803707 -0.206463 0.000000 0.000000 0.000000 3.008293 -0.061957 -0.099374 -3.853190 0.978170 0.383214 1.449846 -1.608680 -0.678684 -3.686293 5.313431 1.077832 0.000000 0.000000 0.000000 0.000000 0.000000 0.000000 -0.000000 0.000000 0.000000 1.773883 0.757456 -0.640521 -3.097555 6.500458 -1.451281 6.789246 -16.223218 3.545120 0.000000 0.000000 0.000000 0.000000 0.000000 0.000000 -0.664994 0.716912 -21.890803 0.525506 -0.703781 0.055759 -7.909296 26.233208 1.374602 0.000000 0.000000 0.000000 -0.439812 -0.132056 -21.839421 -0.000000 0.000000 0.000000 1.796399 -1.995761 -2.530353 0.000000 0.000000 0.000000
15.845707 64.346085 371.283499 0.420079 0.332773 21.927341 -0.513958 -0.151821 -21.929242 -0.000000 0.000000 0.000000 -1.474403 -0.869721 -0.224347 0.000000 0.000000 0.000000 3.089694 -0.026887 -0.105962 -3.787688 0.997283 0.339445 1.053519 -0.120039 -0.154954 -1.812327 3.289269 0.241658 0.000000 0.000000 0.000000 0.000000 0.000000 0.000000 -0.000000 0.000000 0.000000 1.714387 1.061502 -0.661680 -3.812475 6.717495 -1.525885 7.507589 -16.791928 3.819894 0.000000 0.000000 0.000000 0.000000 0.000000 0.000000 -0.727437 0.840104 -21.986073 0.569360 -0.839844 0.062287 -6.935865 21.143760 1.203548 0.000000 0.000000 0.000000 -0.513958 -0.151821 -21.929242 -0.839359 0.124080 -0.133306 2.986425 -1.905953 -2.679012 0.000000 0.000000 0.000000
15.819072 64.335124 371.298723 0.469748 0.381920 21.926493 -0.578385 -0.178870 -21.928962 -0.000000 0.000000 0.000000 -1.428612 -0.986736 -0.255916 0.000000 0.000000 0.000000 3.144280 0.037148 -0.114771 -3.717070 0.843488 0.302236 0.777697 1.607862 0.343500 -0.637447 1.774333 -0.385490 0.000000 0.000000 0.000000 0.000000 0.000000 0.000000 -0.000000 0.000000 0.000000 1.518332 1.206093 -0.618752 -4.779714 7.657049 -1.763892 8.261184 -18.308972 4.495769 0.000000 0.000000 0.000000 0.000000 0.000000 0.000000 -0.797326 0.926949 -21.991034 0.617163 -0.943350 0.068583 -6.557377 18.328957 1.229413 0.000000 0.000000 0.000000 -0.578385 -0.178870 -21.928962 -0.868772 0.205082 -0.113907 3.196449 -1.740394 -2.798183 0.000000 0.000000 0.000000
15.774692 64.325020 371.272469 0.550173 0.403828 21.756915 -0.660670 -0.171112 -21.759840 0.732707 0.381266 0.052612 -2.143299 -1.448878 -0.345155 0.000000 0.000000 0.000000 2.392167 -0.230526 -0.163146 -3.557756 0.543781 0.259904 0.907018 2.795171 0.510612 -0.235855 1.359188 -0.593387 0.000000 0.000000 0.000000 0.000000 0.000000 0.000000 -0.733073 -0.380562 -0.057485 1.297491 1.255439 -0.555454 -5.170941 7.718271 -1.794133 8.869623 -19.130802 4.755062 0.000000 0.000000 0.000000 0.000000 0.000000 0.000000 -0.867272 0.993647 -21.823417 0.624867 -1.004454 0.070537 -6.878313 18.383707 1.406490 0.000000 0.000000 0.000000 -0.660670 -0.171112 -21.759840 -0.846187 0.306660 -0.077447 3.125797 -1.502848 -2.667572 0.000000 0.000000 0.000000
15.732554 64.313561 371.205074 0.680794 0.448811 21.541866 0.179192 -0.057117 -21.516065 0.108406 0.008090 0.045911 -2.425663 -1.589879 -0.382026 0.000000 0.000000 0.000000 2.161412 -0.172332 -0.194292 -3.137780 -0.306926 0.126182 0.676932 2.435755 0.298404 0.120668 3.542659 -0.309738 0.000000 0.000000 0.000000 0.000000 0.000000 0.000000 -0.674941 0.466157 0.081241 0.704078 0.361731 -0.613029 -5.060461 7.359327 -1.774202 8.736948 -17.908198 4.403393 0.000000 0.000000 0.000000 0.000000 0.000000 0.000000 -1.034399 0.989417 -21.610479 0.645897 -0.988476 0.072047 -5.328963 13.288667 1.022822 0.000000 0.000000 0.000000 -0.798036 -0.167459 -21.545699 -0.000000 0.000000 0.000000 1.976178 -0.223941 -2.129205 0.000000 0.000000 0.000000
15.688157 64.302697 371.141877 0.874450 0.524234 21.394275 0.280618 -0.059529 -21.360325 0.138552 0.044063 0.060502 -2.851823 -1.936284 -0.468974 0.000000 0.000000 0.000000 1.785954 -0.272358 -0.216577 -3.081561 -0.352785 0.126796 1.198705 2.098396 -0.008455 -1.018568 4.836700 0.083068 0.000000 0.000000 0.000000 0.000000 0.000000 0.000000 -1.065930 0.579540 0.113087 0.444873 0.189174 -0.579922 -4.453084 6.426506 -1.665235 7.266185 -15.669068 3.773344 0.000000 0.000000 0.000000 0.000000 0.000000 0.000000 -1.264320 0.996919 -21.466118 0.667712 -0.990336 0.074001 -4.688808 11.657807 0.848049 0.000000 0.000000 0.000000 -1.005425 -0.169074 -21.399759 -0.000000 0.000000 0.000000 2.069957 -0.728983 -2.391614 0.000000 0.000000 0.000000
15.643380 64.292506 371.070626 1.100565 0.618348 21.282078 0.377472 -0.059547 -21.239685 0.156091 0.079913 0.075168 -3.262620 -2.132069 -0.513129 0.000000 0.000000 0.000000 1.357112 -0.394959 -0.239056 -2.986935 -0.394427 0.126017 1.182764 0.646857 -0.342679 -1.165843 6.504673 0.471805 0.000000 0.000000 0.000000 0.000000 0.000000 0.000000 -1.458389 0.721978 0.150802 0.162664 -0.114867 -0.544634 -4.176549 5.675178 -1.557378 6.596194 -14.900772 3.530349 0.000000 0.000000 0.000000 0.000000 0.000000 0.000000 -1.480972 0.960751 -21.353324 0.629381 -0.975148 0.070318 -4.793389 11.998501 0.867963 0.000000 0.000000 0.000000 -1.249943 -0.176626 -21.289943 -0.000000 0.000000 0.000000 1.828486 -1.209800 -2.300706 0.000000 0.000000 0.000000
